<svg  xmlns="http://www.w3.org/2000/svg" viewBox="0 0 24 24">   

    <path 
        fill-opacity="0.5"
        fill="#f78"
        d="M5,19h14L19,5L5,5v14zM9,13.14l2.14,2.58 3,-3.87L18,17L6,17l3,-3.86z"
        />
    <path 
        fill="#fff"
        stroke="#000"
        stroke-opacity="0.2"
        stroke-linejoin="round"
        stroke-width="0.5"
        d="M19,3L5,3c-1.1,0 -2,0.9 -2,2v14c0,1.1 0.9,2 2,2h14c1.1,0 2,-0.9 2,-2L21,5c0,-1.1 -0.9,-2 -2,-2zM19,19L5,19L5,5h14v14zM14.14,11.86l-3,3.86L9,13.14 6,17h12z"
        />
</svg>
