<svg  xmlns="http://www.w3.org/2000/svg" viewBox="0 0 24 24">
    <path 
        opacity="0.5"
        fill="#fff"
        d="M5,5v14h14L19,7.83L16.17,5L5,5zM12,18c-1.66,0 -3,-1.34 -3,-3s1.34,-3 3,-3 3,1.34 3,3 -1.34,3 -3,3zM15,10L6,10L6,6h9v4z"
        />
    <path 
        fill="#000" 
        opacity="0.75" 
        d="M17,3L5,3c-1.11,0 -2,0.9 -2,2v14c0,1.1 0.89,2 2,2h14c1.1,0 2,-0.9 2,-2L21,7l-4,-4zM19,19L5,19L5,5h11.17L19,7.83L19,19zM12,12c-1.66,0 -3,1.34 -3,3s1.34,3 3,3 3,-1.34 3,-3 -1.34,-3 -3,-3zM6,6h9v4L6,10z"/>
</svg>
