<svg viewBox="0 0 32.3 32.3" xmlns="http://www.w3.org/2000/svg">

<path d="M14 6.71297e-06C6.28 6.71297e-06 0 6.28001 0 14C0 21.72 6.28 28 14 28C16.36 28 18.68 27.44 20.64 26.36C20.797 26.5489 20.9711 26.723 21.16 26.88L25.16 30.88C25.5293 31.2956 25.9797 31.6313 26.4835 31.8666C26.9873 32.1018 27.5339 32.2316 28.0897 32.2479C28.6454 32.2643 29.1987 32.1669 29.7154 31.9617C30.2322 31.7565 30.7015 31.4479 31.0947 31.0547C31.4879 30.6616 31.7965 30.1922 32.0017 29.6754C32.2069 29.1587 32.3043 28.6054 32.2879 28.0497C32.2716 27.4939 32.1418 26.9473 31.9066 26.4435C31.6713 25.9398 31.3356 25.4894 30.92 25.12L26.92 21.12C26.7252 20.9251 26.5107 20.7508 26.28 20.6C27.36 18.64 28.04 16.36 28.04 13.96C28.04 6.24001 21.76 -0.0399933 14.04 -0.0399933L14 6.71297e-06ZM14 4.00001C19.56 4.00001 24 8.44001 24 14C24 16.64 23.04 19.08 21.36 20.88L21.24 21C21.0511 21.157 20.877 21.3311 20.72 21.52C18.96 23.12 16.56 24.04 13.96 24.04C8.4 24.04 3.96 19.6 3.96 14.04C3.96 8.48001 8.4 4.04001 13.96 4.04001L14 4.00001Z" fill="#A09B9B"/>

</svg>
