<svg width="32" height="27" viewBox="0 0 32 27" fill="none" xmlns="http://www.w3.org/2000/svg">
<path d="M25 4.5C25.569 4.5 26.1325 4.59457 26.6583 4.77832C27.184 4.96206 27.6617 5.23138 28.0641 5.57089C28.4665 5.91041 28.7857 6.31347 29.0035 6.75706C29.2212 7.20066 29.3333 7.6761 29.3333 8.15625V21.0938C29.3333 21.5739 29.2212 22.0493 29.0035 22.4929C28.7857 22.9365 28.4665 23.3396 28.0641 23.6791C27.6617 24.0186 27.184 24.2879 26.6583 24.4717C26.1325 24.6554 25.569 24.75 25 24.75H9.66665C9.09759 24.75 8.5341 24.6554 8.00835 24.4717C7.48261 24.2879 7.0049 24.0186 6.60252 23.6791C6.20013 23.3396 5.88094 22.9365 5.66317 22.4929C5.4454 22.0493 5.33331 21.5739 5.33331 21.0938V14.0647C5.96531 14.2875 6.63598 14.4472 7.33331 14.5395V21.0938C7.33331 21.3277 7.38131 21.5527 7.47065 21.762L15.2346 15.3484C15.7669 14.9088 16.4739 14.6519 17.2181 14.6278C17.9624 14.6037 18.6907 14.814 19.2613 15.2179L19.432 15.3484L27.1946 21.7631C27.284 21.5539 27.3333 21.3289 27.3333 21.0938V8.15625C27.3333 7.63411 27.0875 7.13335 26.6499 6.76413C26.2123 6.39492 25.6188 6.1875 25 6.1875H17.232C17.1258 5.6079 16.9369 5.04127 16.6693 4.5H25ZM16.7453 16.4745L16.6333 16.5532L8.89065 22.9511C9.13331 23.0231 9.39465 23.0625 9.66665 23.0625H25C25.2706 23.0625 25.532 23.0231 25.7733 22.9511L18.0333 16.5544C17.8645 16.4147 17.6424 16.3301 17.4066 16.3155C17.1709 16.3009 16.9365 16.3572 16.7453 16.4745ZM21.6693 8.4375C22.4657 8.4375 23.2294 8.70442 23.7925 9.17954C24.3556 9.65467 24.672 10.2991 24.672 10.971C24.672 11.6429 24.3556 12.2873 23.7925 12.7625C23.2294 13.2376 22.4657 13.5045 21.6693 13.5045C20.873 13.5045 20.1092 13.2376 19.5461 12.7625C18.983 12.2873 18.6666 11.6429 18.6666 10.971C18.6666 10.2991 18.983 9.65467 19.5461 9.17954C20.1092 8.70442 20.873 8.4375 21.6693 8.4375ZM8.66665 1.125C9.62967 1.125 10.5833 1.28504 11.473 1.596C12.3627 1.90695 13.1711 2.36271 13.8521 2.93728C14.5331 3.51184 15.0732 4.19394 15.4418 4.94465C15.8103 5.69535 16 6.49995 16 7.3125C16 8.12505 15.8103 8.92965 15.4418 9.68035C15.0732 10.4311 14.5331 11.1132 13.8521 11.6877C13.1711 12.2623 12.3627 12.7181 11.473 13.029C10.5833 13.34 9.62967 13.5 8.66665 13.5C6.72173 13.5 4.85646 12.8481 3.4812 11.6877C2.10593 10.5273 1.33331 8.95353 1.33331 7.3125C1.33331 5.67147 2.10593 4.09766 3.4812 2.93728C4.85646 1.7769 6.72173 1.125 8.66665 1.125ZM21.6693 10.125C21.5376 10.125 21.4073 10.1469 21.2856 10.1894C21.164 10.2319 21.0534 10.2942 20.9603 10.3728C20.8672 10.4513 20.7934 10.5446 20.743 10.6472C20.6926 10.7499 20.6666 10.8599 20.6666 10.971C20.6666 11.0821 20.6926 11.1921 20.743 11.2948C20.7934 11.3974 20.8672 11.4907 20.9603 11.5692C21.0534 11.6478 21.164 11.7101 21.2856 11.7526C21.4073 11.7951 21.5376 11.817 21.6693 11.817C21.9352 11.817 22.1903 11.7279 22.3783 11.5692C22.5663 11.4106 22.672 11.1954 22.672 10.971C22.672 10.7466 22.5663 10.5314 22.3783 10.3728C22.1903 10.2141 21.9352 10.125 21.6693 10.125ZM8.66665 3.375L8.54665 3.38287C8.41344 3.40341 8.2908 3.45768 8.19505 3.53847C8.0993 3.61926 8.03498 3.72273 8.01065 3.83512L7.99998 3.9375V6.75H4.66398L4.54398 6.759C4.41077 6.77953 4.28814 6.83381 4.19239 6.91459C4.09664 6.99538 4.03232 7.09886 4.00798 7.21125L3.99731 7.3125L4.00798 7.41375C4.03232 7.52614 4.09664 7.62962 4.19239 7.71041C4.28814 7.79119 4.41077 7.84547 4.54398 7.866L4.66398 7.875H7.99998V10.6909L8.01065 10.7921C8.03498 10.9045 8.0993 11.008 8.19505 11.0888C8.2908 11.1696 8.41344 11.2238 8.54665 11.2444L8.66665 11.2545L8.78665 11.2444C8.91985 11.2238 9.04249 11.1696 9.13824 11.0888C9.23399 11.008 9.29831 10.9045 9.32265 10.7921L9.33331 10.6909V7.875H12.6733L12.7933 7.866C12.9265 7.84547 13.0492 7.79119 13.1449 7.71041C13.2407 7.62962 13.305 7.52614 13.3293 7.41375L13.34 7.3125L13.3293 7.21125C13.3049 7.0987 13.2404 6.99512 13.1444 6.91431C13.0484 6.83351 12.9254 6.77933 12.792 6.759L12.672 6.75H9.33331V3.9375L9.32265 3.83625C9.29856 3.72365 9.23434 3.61993 9.13857 3.53892C9.0428 3.45792 8.92004 3.40348 8.78665 3.38287L8.66665 3.375Z" fill="#656565"/>
</svg>
