<svg xmlns="http://www.w3.org/2000/svg" viewBox="0 0 24 24">
    <path 
        opacity="0.7"
        fill="#fff"
        d="M12,4c-4.41,0 -8,3.59 -8,8s3.59,8 8,8 8,-3.59 8,-8 -3.59,-8 -8,-8zM17,13h-4v4h-2v-4L7,13v-2h4L11,7h2v4h4v2z" android:strokeAlpha="0.3"/>
    <path 
        opacity="0.7" 
        fill="#000" 
        d="M13,7h-2v4L7,11v2h4v4h2v-4h4v-2h-4zM12,2C6.48,2 2,6.48 2,12s4.48,10 10,10 10,-4.48 10,-10S17.52,2 12,2zM12,20c-4.41,0 -8,-3.59 -8,-8s3.59,-8 8,-8 8,3.59 8,8 -3.59,8 -8,8z"/>
</svg>
