<svg viewBox="0 0 40 40" xmlns="http://www.w3.org/2000/svg">
<path d="M19.66 6.68996L20 6.66663C20.6041 6.66665 21.1878 6.88543 21.6431 7.28252C22.0984 7.6796 22.3945 8.22811 22.4766 8.82663L22.5 9.16663V17.4966L30.8333 17.5C31.4374 17.5 32.0211 17.7188 32.4764 18.1158C32.9317 18.5129 33.2278 19.0614 33.31 19.66L33.3333 20C33.3333 20.6041 33.1145 21.1878 32.7174 21.6431C32.3203 22.0984 31.7718 22.3945 31.1733 22.4766L30.8333 22.5L22.5 22.4966V30.8333C22.4999 31.4374 22.2811 32.0211 21.8841 32.4764C21.487 32.9317 20.9385 33.2278 20.34 33.31L20 33.3333C19.3958 33.3333 18.8122 33.1145 18.3569 32.7174C17.9016 32.3203 17.6055 31.7718 17.5233 31.1733L17.5 30.8333V22.4966L9.16663 22.5C8.5625 22.4999 7.97882 22.2811 7.52352 21.8841C7.06823 21.487 6.77212 20.9385 6.68996 20.34L6.66663 20C6.66665 19.3958 6.88543 18.8122 7.28252 18.3569C7.6796 17.9016 8.22811 17.6055 8.82663 17.5233L9.16663 17.5L17.5 17.4966V9.16663C17.5 8.5625 17.7188 7.97882 18.1158 7.52352C18.5129 7.06823 19.0614 6.77212 19.66 6.68996L20 6.66663L19.66 6.68996Z" fill="#656565"/>
</svg>
