<svg viewBox="0 0 40 40" xmlns="http://www.w3.org/2000/svg">
<path d="M19.66 6.69L20 6.66666C20.6041 6.66669 21.1878 6.88547 21.6431 7.28255C22.0984 7.67964 22.3945 8.22815 22.4767 8.82666L22.5 9.16666V17.4967L30.8333 17.5C31.4375 17.5 32.0211 17.7188 32.4764 18.1159C32.9317 18.513 33.2278 19.0615 33.31 19.66L33.3333 20C33.3333 20.6041 33.1145 21.1878 32.7174 21.6431C32.3204 22.0984 31.7718 22.3945 31.1733 22.4767L30.8333 22.5L22.5 22.4967V30.8333C22.5 31.4375 22.2812 32.0211 21.8841 32.4764C21.487 32.9317 20.9385 33.2278 20.34 33.31L20 33.3333C19.3959 33.3333 18.8122 33.1145 18.3569 32.7174C17.9016 32.3204 17.6055 31.7718 17.5233 31.1733L17.5 30.8333V22.4967L9.16666 22.5C8.56254 22.5 7.97886 22.2812 7.52356 21.8841C7.06827 21.487 6.77216 20.9385 6.69 20.34L6.66666 20C6.66669 19.3959 6.88547 18.8122 7.28255 18.3569C7.67964 17.9016 8.22815 17.6055 8.82666 17.5233L9.16666 17.5L17.5 17.4967V9.16666C17.5 8.56254 17.7188 7.97886 18.1159 7.52356C18.513 7.06827 19.0615 6.77216 19.66 6.69L20 6.66666L19.66 6.69Z" fill="#656565"/>
</svg>
