<svg  xmlns="http://www.w3.org/2000/svg" viewBox="0 0 24 24">

    <path stroke="#000" stroke-linejoin="round" stroke-width="0.8" fill="#fff" fill-opacity="0.7" d="M17,19.22H5V7h7V5H5C3.9,5 3,5.9 3,7v12c0,1.1 0.9,2 2,2h12c1.1,0 2,-0.9 2,-2v-7h-2V19.22z"/>
    <path fill="#fff" fill-opacity="0.7" stroke="#000" stroke-width="0.8" stroke-linejoin="round" d="M19,2h-2v3h-3c0.01,0.01 0,2 0,2h3v2.99c0.01,0.01 2,0 2,0V7h3V5h-3V2z"/>
    <path fill="#fff" stroke-width="0.4" stroke-opacity="0.5" stroke="#000" stroke-linejoin="round" d="M7,9h8v2h-8z"/>
    <path fill="#fff" stroke-width="0.4" stroke-opacity="0.5" stroke="#000" stroke-linejoin="round" d="M7,12l0,2l8,0l0,-2l-3,0z"/>
    <path fill="#fff" stroke-width="0.4" stroke-opacity="0.5" stroke="#000" stroke-linejoin="round" d="M7,15h8v2h-8z"/>
</svg>
